<svg height="16" viewBox="0 0 16 16" width="16" xmlns="http://www.w3.org/2000/svg"><g fill="#fff"><path d="m0 0h16v16h-16z" opacity="0"/><path d="m8.31187508 2.12926577c-.17235436-.17235436-.450879-.17235436-.62323336 0l-5.67942077 5.67528426c-.16546018.16546019-.25922095.39021027-.25922095.62461219 0 .48672871.3957256.88245431.88245431.88245431h.59841433v4.04963797c0 .2440538.19717338.4412272.44122715.4412272h2.81916575v-2.8385901c0-.1380712.11192881-.25.25-.25h2.51799372c.13807119 0 .25000001.1119288.25000001.25v2.8385901h2.81916573c.2440538 0 .4412272-.1971734.4412272-.4412272v-4.04963797h.5984143c.2344019 0 .459152-.09238193.6246122-.25922095.3433299-.34470871.3433299-.90313683-.0013788-1.24784555z"/></g></svg>