<?xml version="1.0" standalone="no"?><!DOCTYPE svg PUBLIC "-//W3C//DTD SVG 1.1//EN" "http://www.w3.org/Graphics/SVG/1.1/DTD/svg11.dtd"><svg t="1739497925395" class="icon" viewBox="0 0 1024 1024" version="1.1" xmlns="http://www.w3.org/2000/svg" p-id="10220" xmlns:xlink="http://www.w3.org/1999/xlink" width="200" height="200"><path d="M115.086222 921.927111a58.012444 58.012444 0 0 1-15.516444-40.760889l2.588444-159.928889a58.040889 58.040889 0 0 1 15.516445-40.775111 49.848889 49.848889 0 0 1 37.802666-16.725333l204.8-0.455111 74.993778 83.185778a101.816889 101.816889 0 0 0 151.196445 0l75.605333-82.730667h208.810667a50.332444 50.332444 0 0 1 37.816888 16.725333 57.585778 57.585778 0 0 1 15.815112 40.775111l-2.588445 159.488a58.552889 58.552889 0 0 1-15.516444 40.775111 49.777778 49.777778 0 0 1-37.802667 16.725334l-715.676444 0.455111a49.863111 49.863111 0 0 1-37.845334-16.753778z m719.502222-83.740444a24.263111 24.263111 0 1 0 24.177778-23.452445 23.893333 23.893333 0 0 0-24.177778 23.452445z m-91.235555 0a24.248889 24.248889 0 1 0 24.177778-23.452445 23.879111 23.879111 0 0 0-24.177778 23.452445z m-257.422222-115.626667L234.88 467.228444a32.056889 32.056889 0 0 1-7.893333-38.997333 33.479111 33.479111 0 0 1 33.095111-21.774222h147.584V121.002667A36.209778 36.209778 0 0 1 443.491556 85.333333h137.642666a36.209778 36.209778 0 0 1 35.825778 35.669334V406.328889h145.066667a33.692444 33.692444 0 0 1 33.251555 21.76 31.857778 31.857778 0 0 1-7.907555 38.997333L536.334222 722.56a35.271111 35.271111 0 0 1-50.389333 0h-0.014222z" fill="#323233" p-id="10221"></path></svg>