<?xml version="1.0" encoding="UTF-8"?>
<svg width="16px" height="16px" viewBox="0 0 16 16" version="1.1" xmlns="http://www.w3.org/2000/svg" xmlns:xlink="http://www.w3.org/1999/xlink">
    <title>编组 68备份 2</title>
    <g id="设计稿" stroke="none" stroke-width="1" fill="none" fill-rule="evenodd">
        <g id="2-交互说明" transform="translate(-971.000000, -5421.000000)">
            <g id="编组-16" transform="translate(40.000000, 4907.000000)">
                <g id="编组-236" transform="translate(40.000000, 352.000000)">
                    <g id="编组-235" transform="translate(0.000000, 30.000000)">
                        <g id="编组-135" transform="translate(883.000000, 124.000000)">
                            <g id="编组-68备份-2" transform="translate(8.000000, 8.000000)">
                                <rect id="矩形备份-71" x="0" y="0" width="16" height="16"></rect>
                                <g id="编组-70备份" transform="translate(2.285714, 1.714286)" fill="#FFFFFF">
                                    <path d="M7.428,1.96686788 L8,2.19786788 L8,8.41680859 L8.57142857,8.41680859 L8.571,2.42786788 L10.6462329,3.26514312 C11.1189962,3.45586884 11.4285714,3.91457815 11.4285714,4.42436387 L11.4285714,11.8214288 C11.4285714,12.2356424 11.092785,12.5714289 10.6785714,12.5714289 L4,12.5714289 L4,11.3088679 L7.42857143,11.3095806 L7.428,1.96686788 Z" id="形状结合"></path>
                                    <path d="M7.24999997,0 C7.66421355,3.49325024e-17 8,0.335786451 8,0.75000003 L8,11.8214285 C8,12.2356421 7.66421355,12.5714286 7.24999997,12.5714286 L0.75000003,12.5714286 C0.335786451,12.5714286 1.61748836e-16,12.2356421 0,11.8214285 L0,0.75000003 C6.02957691e-17,0.335786451 0.335786451,1.87112102e-16 0.75000003,0 L7.24999997,0 Z M6.03571428,7.14285714 L1.96428572,7.14285714 C1.82621453,7.14285714 1.71428571,7.25478596 1.71428571,7.39285715 L1.71428571,8.03571428 C1.71428571,8.17378547 1.82621453,8.28571429 1.96428572,8.28571429 L6.03571428,8.28571429 C6.17378547,8.28571429 6.28571429,8.17378547 6.28571429,8.03571428 L6.28571429,7.39285715 C6.28571429,7.25478596 6.17378547,7.14285714 6.03571428,7.14285714 Z M6.03571428,4.85714286 L1.96428572,4.85714286 C1.82621453,4.85714286 1.71428571,4.96907167 1.71428571,5.10714286 L1.71428571,5.75 C1.71428571,5.88807119 1.82621453,6 1.96428572,6 L6.03571428,6 C6.17378547,6 6.28571429,5.88807119 6.28571429,5.75 L6.28571429,5.10714286 C6.28571429,4.96907167 6.17378547,4.85714286 6.03571428,4.85714286 Z M6.03571428,2.57142857 L1.96428572,2.57142857 C1.82621453,2.57142857 1.71428571,2.68335739 1.71428571,2.82142858 L1.71428571,3.46428571 C1.71428571,3.6023569 1.82621453,3.71428571 1.96428572,3.71428571 L6.03571428,3.71428571 C6.17378547,3.71428571 6.28571429,3.6023569 6.28571429,3.46428571 L6.28571429,2.82142858 C6.28571429,2.68335739 6.17378547,2.57142857 6.03571428,2.57142857 Z" id="形状结合备份-42"></path>
                                </g>
                            </g>
                        </g>
                    </g>
                </g>
            </g>
        </g>
    </g>
</svg>