<?xml version="1.0" encoding="UTF-8"?>
<svg width="16px" height="16px" viewBox="0 0 16 16" version="1.1" xmlns="http://www.w3.org/2000/svg" xmlns:xlink="http://www.w3.org/1999/xlink">
    <title>编组</title>
    <g id="设计稿" stroke="none" stroke-width="1" fill="none" fill-rule="evenodd">
        <g id="2-交互说明" transform="translate(-371.000000, -5421.000000)">
            <g id="编组-16" transform="translate(40.000000, 4907.000000)">
                <g id="编组-236" transform="translate(40.000000, 352.000000)">
                    <g id="编组-235" transform="translate(0.000000, 30.000000)">
                        <g id="编组-234" transform="translate(283.000000, 124.000000)">
                            <g id="编组" transform="translate(8.000000, 8.000000)">
                                <rect id="矩形备份-34" x="0" y="0" width="16" height="16"></rect>
                                <path d="M7.99997397,1.71428571 C9.80744346,1.71428571 11.272687,3.18256927 11.272687,4.99378882 C11.272687,6.29407114 10.5175201,7.69931083 9.42270091,8.38866112 C11.3813129,8.71046177 12.8768492,9.69748854 13.7101914,11.0082903 C13.7849009,11.1258042 13.8814864,11.3076547 13.9999478,11.5538418 L13.9787627,13.5436988 C13.9743862,13.9547743 13.639904,14.2857143 13.2288052,14.2857143 L2.75000009,14.2857143 C2.33578653,14.2857143 2.00000009,13.9499278 2.00000009,13.5357143 L2.00000009,11.5554034 L2.06892501,11.4144034 C2.15731007,11.2367749 2.23163579,11.1006324 2.29190218,11.0059758 C3.12568643,9.69640373 4.61991637,8.71038733 6.57659567,8.38707777 C5.48197242,7.69846329 4.72726094,6.29367902 4.72726094,4.99378882 C4.72726094,3.18256927 6.19250447,1.71428571 7.99997397,1.71428571 Z" id="形状结合备份-7" fill="#FFFFFF"></path>
                            </g>
                        </g>
                    </g>
                </g>
            </g>
        </g>
    </g>
</svg>